<?xml version="1.0" encoding="iso-8859-1"?>
<!-- Uploaded to: SVG Repo, www.svgrepo.com, Generator: SVG Repo Mixer Tools -->
<!DOCTYPE svg PUBLIC "-//W3C//DTD SVG 1.1//EN" "http://www.w3.org/Graphics/SVG/1.1/DTD/svg11.dtd">
<svg fill="#000000" version="1.1" id="Capa_1" xmlns="http://www.w3.org/2000/svg" xmlns:xlink="http://www.w3.org/1999/xlink" 
	 width="800px" height="800px" viewBox="0 0 191.383 191.383"
	 xml:space="preserve">
<g>
	<path d="M114.443,0.585c-4.637-0.684-9.244-0.228-13.864,0.29c-0.119,0.013-0.201,0.075-0.314,0.097
		C59.719-6.971,24.492,35.373,12.009,69.895c-16.013,44.283-2.712,97.137,43.99,115.618c48.883,19.345,100.2-11.603,121.278-56.514
		C201.209,78.012,173.402,9.281,114.443,0.585z M170.405,124.982c-17.754,41.308-65.099,69.74-109.268,54.279
		c-45.624-15.97-55.251-66.031-41.158-107.17c6.435-18.785,18.249-35.487,33.438-48.169c15.349-12.816,33.66-16.309,52.833-16.445
		C163.571,9.773,191.48,75.943,170.405,124.982z"/>
	<path d="M125.897,24.622c-8.127-2.653-16.825-3.386-25.318-3.235c-0.697,0.012-1.23,0.245-1.689,0.554
		C20.063,15.834-5.267,157.701,78.064,173.178c41.05,7.623,74.046-21.416,85.081-59.145C173.139,79.865,162.897,36.7,125.897,24.622
		z M93.049,166.967c-39.923,1.613-61.73-32.171-59.057-68.875c2.776-38.124,29.064-64.485,65.148-70.734
		c0.408,0.21,0.875,0.353,1.439,0.362C186.888,29.1,169.988,163.857,93.049,166.967z"/>
	<path d="M56.407,122.285c-0.761-0.016-1.097-0.496-1.661-0.909c-0.539-0.396-1.071-0.55-1.736-0.563
		c-0.638-0.013-0.808,1.047-0.154,1.135c1.372,0.188,1.878,1.719,3.338,1.918C57.368,124.025,57.561,122.31,56.407,122.285z"/>
	<path d="M155.036,85.086c-0.6-1.383-2.298-3.071-3.266-4.133c-1.593-1.75-1.213-4.804-1.845-6.981
		c-0.486-1.674-1.771-2.889-3.134-4.008c2.485-2.625,3.116-6.225-0.39-10.599c-1.513-1.888-6.256-4.554-6.763-6.873
		c-0.489-2.233-0.721-3.846-2.133-5.656c-2.357-3.021-9.646-1.196-12.749-1.626c-0.74-0.103-1.305,0.287-1.612,0.807
		c-1.202-1.425-2.577-2.578-4.051-3.028c-0.03-0.174-0.091-0.35-0.203-0.521c-3.646-5.542-8.157-9.148-14.332-11.535
		c-0.666-0.257-1.677,0.024-2.134,0.564c-2.273,2.685-2.47,5.006-3.313,7.945c-2.521-0.16-5.851-0.481-7.731,0.868
		c-1.745,1.252-1.092,3.996-2.027,5.758c-0.12,0.227-1.528,0.259-3.125,0.448c-0.037-0.369-0.249-0.715-0.681-0.822
		c-6.277-1.558-14.698-2.742-18.61,3.916c-2.037,3.467-1.725,4.935-5.85,5.742c-2.005,0.393-3.187,1.911-4.064,3.618
		c-2.814,5.475-12.08,10.436-10.811,17.555c0.115,0.645,0.339,1.195,0.585,1.725c-0.851,0.3-1.62,0.692-2.184,1.25
		c-1.959,1.938-1.649,4.609-0.806,7.017c-2.794,1.597-5.486,4.009-6.35,7.151c-0.963,3.5,4.387,4.104,6.27,5.283
		c1.521,0.953,3.125-1.205,1.888-2.447c-0.587-0.589-1.044-0.949-1.724-1.431c-0.516-0.307-1.051-0.575-1.607-0.802
		c-0.149-0.114-0.261-0.189-0.365-0.255c1.359-2.178,3.015-3.638,5.258-4.951c0.733-0.429,1.117-1.338,0.879-2.161
		c-0.547-1.893-2.018-4.274,0.486-4.973c0.538-0.15,1.078-0.272,1.618-0.392c2.961,1.419,6.973,1.428,10.166,0.831
		c0.296,0.89,0.645,1.78,1.101,2.682c0.61,1.205,2.321,1.293,3.225,0.415c0.932-0.905,1.986-1.527,3.151-2.089
		c0.013-0.006,0.028-0.009,0.042-0.015c-1.492,2.57-3.035,5.038-4.065,7.732c-6.07-2.855-12.729-1.504-15.446,6.46
		c-0.727,2.133-3.683,3.887-4.997,5.838c-1.387,2.061-1.994,4.563-1.994,7.014c0,3.879,2.636,6.642,5.874,8.158
		c-0.501,0.707-0.932,1.473-1.208,2.358c-0.964,3.092,0.547,6.153,3.115,7.888c1.654,1.117,3.598,1.461,5.52,1.301
		c-0.667,3.063-1.923,6.354-1.051,9.297c0.878,2.957,4.347,3.195,7.223,2.994c-0.523,6.526,1.212,13.854,7.914,16.489
		c5.333,2.097,10.666-0.198,14.328-4.165c0.235,0.165,0.437,0.346,0.712,0.49c3.076,1.619,6.582,0.445,9.646-1.287
		c0.681,1.979,2.717,3.532,6.807,4.125c8.66,1.255,10.542-4.742,9.062-10.736c1.983,2.803,5.106,4.568,9.507,4.08
		c6.194-0.689,6.997-6.01,10.275-9.901c0.858-1.02,2.13-1.229,2.908-2.421c0.721-1.101,0.37-2.661-0.125-4.061
		c4.819-0.191,7.899-3.322,10.562-7.906c0.427-0.734-0.103-1.965-1.063-1.853c-1.496,0.174-2.184,0.63-3.162,1.849
		c-2.642,3.295-4.051,5.025-8.729,4.561c-0.995-0.1-1.915,1.119-1.562,2.049c1.122,2.952,1.178,3.303-1.027,4.93
		c-2.036,1.502-2.911,4.577-4.593,6.35c-3.101,3.271-6.784,2.869-9.8-0.01c-2.876-2.746-3.192-7.311-2.642-11.153
		c9.497-0.681,18.315-8.308,22.014-17.498c0.868,0.196,1.907,0.135,2.706,0.174c1.813,0.091,2.28-2.081,1.423-3.188
		c0.388-1.25-1.253-2.531-2.472-1.469c-0.106,0.094-0.235,0.159-0.354,0.238c0.987-4.592,0.647-9.355-1.55-13.695
		c0.075-0.24,0.151-0.48,0.142-0.785c-0.159-5.21,2.442-7.915-0.484-12.946c-0.117-0.201-0.311-0.331-0.485-0.48
		c1.349-1.746,2.833-3.033,4.068-4.38c-0.423,0.566-0.496,1.34,0.22,2.007c0.142,0.131,0.298,0.214,0.446,0.322
		c0.269,0.964-0.069,2.376-0.217,3.173c-0.235,1.268-0.595,2.518-0.686,3.809c-0.063,0.918,0.799,1.618,1.646,1.646
		c2.83,0.094,5.663,0.072,8.494,0.078c0.904,0.002,1.771-0.787,1.725-1.725c-0.068-1.384-1.471-4.403-0.493-5.564
		c0.386-0.457,0.569-1.112,0.435-1.694c0.068,0.094,0.127,0.192,0.22,0.276c6.308,5.592,5.874,11.812-1.342,16.899
		c-1.212,0.855-1.544,2.459-0.463,3.593c2.974,3.116,1.016,6.105-0.738,8.688c-1.155-0.56-2.337-1.082-3.536-1.659
		c-0.809-0.389-2.022-0.295-2.452,0.644c-1.123,2.455-1.361,6.085-3.111,8.137c-1.483,1.741,1.027,4.277,2.522,2.522
		c1.779-2.086,2.214-4.795,3.085-7.326c0.65,0.307,1.28,0.625,1.901,0.954c0.056,1.64,1.968,2.776,3.298,2.147
		c0.118,0.096,0.239,0.176,0.356,0.276c-0.41,2.015-1.094,4.089-3.44,4.047c-1.939-0.035-3.766-0.272-5.55,0.692
		c-1.539,0.832-0.482,3.43,1.201,2.848c1.472-0.509,3.155,0.158,4.676,0.175c1.938,0.022,3.733-0.836,4.863-2.42
		c1.532-2.149,3.038-5.892,0.91-7.94c-0.327-0.314-0.685-0.556-1.029-0.828c2.478-4.773,4.798-6.984,1.709-12.11
		C154.748,97.094,158.124,92.218,155.036,85.086z M123.946,70.424c0.236-5.194,1.445-10.275,2.001-15.43
		c1.973,1.376,3.785,2.994,4.729,5.243c1.302,3.107,0.828,6.918,0.349,10.246c-2.247,0.426-4.312-0.195-6.66-0.094
		c-0.159,0.007-0.292,0.047-0.43,0.083C123.936,70.454,123.944,70.442,123.946,70.424z M90.385,50.483
		c0.758,0.076,1.464-0.47,1.852-1.062c1.188-1.814,1.966-3.499,2.13-5.67c0.003-0.043,0.004-0.061,0.007-0.1
		c1.906-0.384,4.403-0.06,6.206-0.072c0.99-0.007,1.61-0.637,1.964-1.495c0.574-1.398,1.059-6.978,4.143-5.583
		c3.522,1.593,6.438,4.031,8.959,6.891c-0.466,0.259-0.934,0.583-1.404,1.036c-1.942,1.866-3.076,4.201-3.65,6.737
		c-0.254-0.606-0.851-1.083-1.516-1.079c-2.909,0.018-6.078-0.524-8.936,0.05c-1.017,0.204-1.375,1.322-1.09,2.188
		c0.448,2.671-0.624,5.386-0.016,7.988c0.819,3.506,5.572,3.482,8.343,3.489c0.594,0.001,1.368-0.344,1.617-0.927
		c1.18-2.769,0.773-5.664,1.164-8.482c-0.215,3.932,0.594,8.074,1.692,11.601c-2.872,1.261-7.278,3.486-7.036,6.679
		c0.229,3.006,2.537,4.703,4.96,6.123c-1.227,0.32-2.458,0.584-3.683,0.32c-0.424-0.091-0.781-0.007-1.081,0.155
		c-2.717-2.718-8.837-7.975-12.752-4.677c-0.58,0.488-0.986,1.078-1.32,1.707c-0.593-0.264-1.205-0.597-1.804-0.729
		c0.046-0.395-0.441-0.685-0.783-0.388c-0.254,0.22-0.388,0.53-0.639,0.726c-0.064,0.05-0.091,0.13-0.141,0.193
		c1.325-5.324,2.605-10.805,2.323-15.872c-0.065-1.174-1.612-1.677-2.248-0.609c-0.636,1.068-1.157,2.231-1.633,3.429
		c-0.147-0.227-0.362-0.403-0.723-0.378c-4.08,0.283-9.054,3.311-9.605,7.696c-0.524,4.166,3.001,7.533,6.612,9.14
		c-0.11,0.652-0.22,1.307-0.337,1.939c-5.916-1.779-10.118-5.899-7.837-12.727c2.23-6.676,9.676-10.372,16.264-10.533
		c1.471-0.036,1.924-2.436,0.361-2.665c-2.1-0.308-4.156-0.278-6.136-0.003C85.457,52.585,84.74,49.92,90.385,50.483z
		 M106.728,53.458c-0.148,0.62-0.275,1.244-0.322,1.919c-0.111,1.59,0.029,3.148-0.362,4.673c-1.019-0.009-2.082-0.07-2.957-0.454
		c-0.471-0.207-0.426-0.299-0.454-0.923c-0.08-1.748,0.02-3.407-0.126-5.091C103.897,53.626,105.323,53.533,106.728,53.458z
		 M85.381,64.697c-1.265,3.775-1.964,7.957-2.618,11.988c-1.702-1.599-3.346-3.312-3.544-5.781
		C78.959,67.668,83.095,66.148,85.381,64.697z M62.111,73.316c-1.406-0.312-2.941,0.656-2.895,2.205
		c0.037,1.246,0.16,2.413,0.336,3.556c-1.568-0.028-3.401-0.045-4.982-0.423c-0.113-0.757-0.663-1.438-1.562-1.369
		c-0.311,0.024-0.648,0.047-1.001,0.074c-0.354-0.34-0.665-0.725-0.862-1.221c-1.242-3.129,5.134-7.565,7.028-9.044
		c1.598-1.248,2.557-4.51,3.523-6.329c0.657-1.238,4.299-1.431,5.511-1.727c0.706-0.173,1.474-0.851,1.597-1.597
		c1.303-7.891,6.928-9.809,13.641-9.884c-0.344,0.212-0.64,0.455-0.833,0.758c-1.601,2.496-1.438,5.571-1.603,8.439
		c-4.659,1.871-8.472,5.497-10.451,10.712c-0.873,2.299-1.074,4.444-0.791,6.414C66.548,73.786,64.231,73.786,62.111,73.316z
		 M64.22,80.754c-0.268-1.083-0.404-2.162-0.436-3.294c1.96-0.234,4.01-0.224,5.949-0.343c0.295,0.625,0.649,1.221,1.047,1.792
		C68.658,78.61,66.227,79.529,64.22,80.754z M68.099,91.272c0.947-2.974,2.48-5.542,3.208-8.595
		c0.028-0.117,0.017-0.225,0.016-0.335c0.376-0.13,0.741-0.29,1.085-0.51c0.211-0.135,0.375-0.32,0.49-0.529
		c2.683,2.442,6.337,4.101,10.135,4.731c1.047,0.173,2.353-0.258,2.576-1.463c0.442-2.385,1.065-4.884,1.7-7.423
		c0.046,0.337,0.169,0.663,0.401,0.872c0.676,0.607,1.49,1.092,2.371,1.479c-0.191,2.968,0.749,6.355,1.479,8.938
		c-3.039,2.608-6.652,6.543-5.821,10.75c0.759,3.848,3.844,5.389,7.248,6.07c-1.662,1.322-2.819,2.784-3.617,4.316
		c-4.006-0.014-7.507-0.107-11.595-1.967c-1.529-0.697-2.805-1.313-3.229-2.469c0.05-0.128,0.112-0.242,0.158-0.376
		c0.179-0.517,0.05-0.928-0.226-1.211c0.021-0.106,0.022-0.2,0.053-0.313c0.537-1.998,1.007-3.562,1.148-5.631
		c0.081-1.191-1.1-2.352-2.283-2.284c-1.537,0.089-3.141,0.092-4.234-0.397c-0.341-0.341-0.693-0.66-1.05-0.971
		C67.782,93.341,67.708,92.5,68.099,91.272z M81.199,125.712c-0.607,0.213-1.225,0.483-1.842,0.785
		c-1.47-0.495-2.959-0.968-4.36-1.608c-3.267-1.492-1.115-5.296-0.042-7.684c0.413-0.918,0.254-1.908-0.647-2.471
		c-2.589-1.615-4.57-3.016-2.247-5.75c0.04-0.047,0.075-0.093,0.115-0.14c4.891,2.78,10.4,5.42,15.955,4.958
		c-0.244,2.819,0.505,5.716,1.954,8.403c-0.915,0.099-1.935-0.074-2.756-0.138c-1.33-0.103-2.452,0.151-3.738,0.281
		c-1.313,0.133-2.449,1.008-2.437,2.438C81.155,125.109,81.187,125.4,81.199,125.712z M86.038,125.986
		c0.114-0.023,0.227-0.059,0.342-0.076c1.836-0.355,3.817-0.153,5.486-0.926c0.475,0.627,0.987,1.231,1.526,1.814
		c-2.709-0.04-4.327,3.145-6.744,4.104c-0.25-0.783-0.45-1.58-0.519-2.412c-0.064-0.78-0.098-1.556-0.107-2.338
		C86.034,126.078,86.031,126.048,86.038,125.986z M54.053,126.064c-0.825-0.017-1.679-0.283-2.429-0.729
		c-0.59-0.351-0.888-0.652-1.294-1.474c0.128,0.258-0.136-0.721-0.12-0.523c-0.022-0.264-0.003-0.527,0.02-0.788
		c-0.046,0.506,0.114-0.322,0.145-0.424c0.029-0.095,0.026-0.099,0.035-0.134c0.018-0.028,0.032-0.047,0.088-0.161
		c0.144-0.296,0.312-0.585,0.475-0.871c0.346-0.607,0.809-1.104,1.301-1.597c1.021-1.021,2.176-1.895,3.369-2.709
		c0.091,0.227,0.242,0.424,0.53,0.487c1.31,0.286,2.461,0.177,3.783,0.108c1.213-0.062,2.099,0.418,2.907,1.141
		c-1.197,2.86-2.883,5.547-5.712,7.012C56.11,125.941,55.138,126.085,54.053,126.064z M80.554,150.122
		c-2.377,3.194-5.214,5.874-9.707,4.671c-5.643-1.512-6.314-9.572-5.635-14.161c0.174-1.175-0.524-2.826-2.009-2.638
		c-2.401,0.305-5.929,1.334-5.794-1.973c0.091-2.236,0.393-4.412,0.425-6.64c0.194-0.072,0.393-0.136,0.582-0.217
		c4.28-1.827,6.852-6.486,8.15-10.714c0.166-0.543,0.007-1.305-0.444-1.68c-1.53-1.271-3.087-2.236-5.119-2.305
		c-1.14-0.039-2.297,0.262-3.42,0.582c0.307-0.868-0.415-1.982-1.516-1.689c-2.254,0.598-4.613,1.496-6.531,2.892
		c-2.927-2.001-4.97-4.478-4.092-8.308c0.876-3.821,4.67-5.662,6.187-9.002c1.347-2.963,3.179-5.761,6.693-5.974
		c1.617-0.098,3.126,0.427,4.563,1.169c-0.114,0.576-0.201,1.164-0.254,1.77c-0.061,0.705,0.46,1.676,1.125,1.96
		c2.409,1.033,4.587,1.498,6.986,1.777c-0.486,2.146-1.171,4.156-1.187,6.455c0,0.014,0.011,0.026,0.011,0.041
		c-1.164,1.318-2.146,2.811-2.541,4.364c-0.711,2.793,1.847,4.915,4.066,6.423c-1.379,2.943-2.692,6.688-0.484,9.346
		c1.302,1.568,3.136,2.254,5.077,2.64c-2.12,1.817-3.692,4.132-3.678,6.706c0.028,5.443,4.781,7.69,9.332,9.053
		C80.796,146.443,80.422,148.355,80.554,150.122z M102.691,153.898c-0.249-0.408-0.448-0.85-0.39-1.218
		c0.091-0.563,0.125-1.173,0.12-1.767c0.724-0.172,0.698-1.346-0.146-1.346c-0.021,0-0.028,0.021-0.05,0.021
		c-0.719-1.637-3.304-1.422-3.483,0.682c-0.104,1.206,0.225,2.407,0.79,3.493c-1.487-0.452-1.856-1.545-1.6-2.917
		c0.142-0.211,0.19-0.457,0.17-0.691c0.841-2.695,3.606-6.172,5.37-8.239C105.673,146.012,109.388,153.062,102.691,153.898z
		 M107.047,141.949c-0.636-1.034-1.357-1.986-2.146-2.793c-0.802-0.821-1.929-0.248-2.162,0.636
		c-3.871,2.058-8.064,6.442-9.249,10.432c-1.872,0.448-3.768,0.804-5.679,0.859c-0.826,0.024-1.397-0.188-1.843-0.511
		c0.525-1.025,0.958-2.084,1.26-3.16c0.45-1.606-0.845-2.534-2.118-2.407c0.06-0.368,0.123-0.726,0.178-1.058
		c0.161-0.953-0.237-1.879-1.23-2.164c-2.937-0.844-9.45-3.168-7.636-7.369c0.957-2.219,3.098-3.626,5.204-4.953
		c0.354,1.648,0.927,3.234,1.851,4.886c0.326,0.584,1.114,1.124,1.813,1.04c2.046-0.246,3.589-1.029,5.206-2.281
		c1.419-1.099,3.735-2.587,4.503-4.205c0.069-0.146,0.069-0.281,0.097-0.422c0.586,0.522,1.187,1.026,1.815,1.485
		c3.314,2.428,6.805,3.629,10.26,3.868C106.56,136.443,106.502,139.297,107.047,141.949z M126.134,96.859
		c8.208,16.914-11.494,42.586-28.117,26.434c-4.971-4.83-4.528-9.079-1.464-12.708c2.945,7.466,9.931,12.848,18.362,9.975
		c9.433-3.214,11.845-14.868,9.592-23.461c-0.123-0.471-0.368-0.774-0.65-0.999c0.106-0.776-0.495-1.627-1.525-1.404
		c-2.949,0.637-5.962,1.252-8.96,1.949c-1.528-1.874-1.306-4.902-2.354-7.046c-1.425-2.911-4.702-2.035-7.289-1.101
		c-1.404,0.507-2.883,1.267-3.994,2.282c-1.133,1.036-1.082,1.965-0.701,3.393c0.309,1.16,1.083,2.153,1.836,3.056
		c0.614,0.738,1.704,1.428,1.897,2.409c0.011,0.056,0.043,0.093,0.061,0.142c-2.423,0.945-4.757,2.082-6.96,3.465
		c-0.021-0.008-0.034-0.023-0.055-0.03c-2.696-0.833-6.72-2.188-6.119-5.746c0.488-2.892,3.414-5.174,5.478-6.971
		c0.516-0.449,0.68-1.268,0.504-1.906c-0.689-2.487-1.433-5.387-1.362-8.106c1.128,0.066,2.239,0,3.238-0.234
		c0.692-0.161,1.002-0.768,0.977-1.369c2.02,1.182,4.128,2.868,4.603,3.189c0.66,0.447,1.329,0.297,1.813-0.112
		c0.105,0.055,0.191,0.124,0.321,0.16c1.405,0.389,2.766,0.487,4.215,0.247c3.466-0.572,5.545-1.383,6.126,3.347
		c0.138,1.117,0.793,1.893,1.966,1.966c3.504,0.217,7.04,0.137,10.557,0.127c0.793,2.105,0.36,4.071-0.177,6.148
		C126.685,93.882,125.466,95.482,126.134,96.859z M120.831,97.874c0.003,0.083-0.021,0.153-0.008,0.239
		c1.053,6.912,0.488,15.463-6.974,18.586c-6.78,2.84-11.98-2.994-14.826-8.502C104.913,103.422,114.871,99.938,120.831,97.874z
		 M105.173,98.941c-0.3-2.119-2.242-3.521-2.656-5.61c1.739-1.401,3.782-2.222,5.964-2.68c1.244,1.918,1.243,4.515,2.271,6.621
		C108.864,97.755,107.006,98.318,105.173,98.941z M125.569,82.734c-0.207,0.3-0.312,0.598-0.375,0.89
		c-2.058-0.003-4.116,0.007-6.169,0.089c-0.731-2.373-1.7-4.537-4.314-5.373c-0.43-0.138-0.864-0.183-1.299-0.193
		c-0.027-0.032-0.038-0.068-0.07-0.099c-1.468-1.426-2.997-2.847-4.126-4.57c-0.862-1.315,5.195-4.393,5.905-4.825
		c0.935-0.569,1.119-1.635,0.676-2.577c-2.363-5.02-2.697-10.975-0.961-16.225c2.074-6.274,5.683-3.004,8.141,0.73
		c-0.273,0.319-0.481,0.694-0.481,1.155c-0.006,6.266-1.101,12.441-1.111,18.688c-0.002,0.876,0.689,1.272,1.355,1.222
		c-0.16,0.673,0.078,1.465,0.751,1.975c2.207,1.674,5.701,1.67,8.46,0.954C131.327,77.974,127.42,80.069,125.569,82.734z
		 M134.265,58.724c-1.606-3.669-4.771-6.022-8.084-8.066c-0.415-0.798-0.904-1.65-1.45-2.49c5.242,0.578,12.288-1.451,11.088,6.377
		c-0.156,1.022,0.098,1.926,1.019,2.501c2.738,1.708,5.067,3.482,6.769,6.254c1.138,1.853,0.83,3.135-0.176,4.035
		c-0.784-0.169-1.688,0.296-1.861,1.049c-2.023,0.75-4.687,0.968-6.327,1.046C135.623,65.823,135.722,62.048,134.265,58.724z
		 M138.038,87.436c0.182-1.411,0.472-2.887,0.437-4.288c0.254,0.024,0.506,0.051,0.768,0.062c0.784,0.033,2.179-0.19,3.24-0.038
		c-0.292,1.368,0.052,2.751,0.316,4.22C141.212,87.391,139.625,87.407,138.038,87.436z M146.145,81.313
		c-0.058-0.075-0.086-0.162-0.163-0.228c-1.226-1.047-2.646-1.28-4.218-1.354c-1.079-0.051-3.4,0.406-4.317-0.304
		c-0.774-0.6-1.685-0.44-2.285,0.04c1.154-1.332,2.006-2.811,2.151-4.984c2.201-0.38,4.427-1.12,6.336-2.163
		c1.57,1.916,3.055,3.446,2.438,7.729C146.024,80.475,146.029,80.912,146.145,81.313z"/>
</g>
</svg>