<!-- icon666.com - MILLIONS vector ICONS FREE --><svg version="1.1" id="Capa_1" xmlns="http://www.w3.org/2000/svg" xmlns:xlink="http://www.w3.org/1999/xlink" x="0px" y="0px" viewBox="0 0 511.999 511.999" style="enable-background:new 0 0 511.999 511.999;" xml:space="preserve"><g><g><path d="M268.443,85.972c-30.042,0-54.482,24.441-54.482,54.482s24.44,54.482,54.482,54.482c30.042,0,54.482-24.441,54.482-54.482 C322.925,110.413,298.485,85.972,268.443,85.972z M268.443,179.941c-21.773,0-39.487-17.714-39.487-39.487 c0-21.773,17.714-39.487,39.487-39.487c21.773,0,39.487,17.714,39.487,39.487C307.93,162.227,290.217,179.941,268.443,179.941z"></path></g></g><g><g><path d="M268.443,239.922c-23.427,0-42.486,19.059-42.486,42.486s19.059,42.486,42.486,42.486 c23.427,0,42.486-19.059,42.486-42.486S291.87,239.922,268.443,239.922z M268.443,309.899c-15.158,0-27.491-12.332-27.491-27.491 s12.333-27.491,27.491-27.491c15.158,0,27.491,12.332,27.491,27.491S283.602,309.899,268.443,309.899z"></path></g></g><g><g><path d="M469.852,140.205C432.999,55.034,349.233,0,256.447,0C162.532,0,78.374,55.97,42.041,142.591 c-2.611,6.226-2.499,13.324,0.308,19.475c2.814,6.167,8.121,10.918,14.56,13.035l7.917,2.602c2.479,0.815,5.012,1.203,7.514,1.203 c9.534,0,18.603-5.642,22.47-14.78c0.13-0.308,0.267-0.613,0.399-0.92l24.784,54.861v103.329 c0,14.056,11.435,25.492,25.492,25.492c11.545,0,21.316-7.717,24.441-18.262l9.927,22.525c0.007,0.015,0.014,0.031,0.02,0.046 l68.577,155.61c1.405,3.155,4.546,5.193,7.999,5.193c3.454,0,6.595-2.039,7.997-5.19l17.843-40.008l3.214-7.07 c3.936,4.358,9.61,7.117,15.931,7.117c11.851,0,21.493-9.642,21.493-21.493V407.74c3.426,0.741,6.932,1.127,10.497,1.127 c27.285,0,49.484-22.199,49.484-49.484c0-20.775-13.1-39.163-32.057-46.312l2.593-5.815c4.374,3.525,9.927,5.642,15.968,5.642 c14.056,0,25.492-11.435,25.492-25.492v-73.113l22.809-51.142c5.299,11.014,18.244,16.456,29.894,12.412l7.869-2.733 c6.381-2.215,11.599-7.033,14.316-13.218C472.5,153.449,472.522,146.374,469.852,140.205z M123.743,190.265l-19.889-44.484 c6.665-11.753,14.588-22.559,23.547-32.289c16.77,4.787,28.578,20.175,28.578,37.96 C155.98,170.636,142.308,186.839,123.743,190.265z M196.629,352.037c4.11-1.409,8.451-2.151,12.833-2.151 c21.773,0,39.487,17.714,39.487,39.487c0,14.646-8.049,27.854-20.584,34.679L196.629,352.037z M367.911,359.383 c0,19.017-15.472,34.489-34.489,34.489c-3.605,0-7.122-0.552-10.497-1.63v-16.56l21.805-48.892 C358.395,331.533,367.911,344.593,367.911,359.383z M455.845,154.043c-1.134,2.253-3.202,3.897-5.584,4.724l-7.576,2.631 c-4.581,1.589-9.679-0.629-11.607-5.052c-13.313-30.518-34.006-56.292-59.45-75.6c-2.976-2.259-7.176-1.941-9.818,0.701 c-3.223,3.223-2.843,8.536,0.788,11.292c18.664,14.171,34.556,32.112,46.442,53.04l-14.138,31.701v-14.218 c0-4.106-3.164-7.685-7.268-7.808c-4.246-0.127-7.728,3.277-7.728,7.495v124.153c0,5.463-4.047,10.245-9.486,10.756 c-6.241,0.587-11.507-4.328-11.507-10.449v-77.661c0-4.106-3.164-7.685-7.268-7.808c-4.246-0.127-7.727,3.277-7.727,7.495v16.688 c0,5.463-4.047,10.245-9.486,10.756c-6.241,0.587-11.507-4.328-11.507-10.449v-36.674c0-4.106-3.164-7.685-7.268-7.808 c-4.246-0.127-7.727,3.277-7.727,7.495v36.41c0,13.574,10.377,25.201,23.926,26.023c4.316,0.262,8.415-0.568,12.062-2.223v37.757 c0,1.279,0.097,2.534,0.28,3.763l-21.296,47.751c-0.251-4.051-3.709-7.233-7.87-7.019c-4.034,0.208-7.101,3.744-7.101,7.782 v105.444c0,3.302-2.367,6.249-5.642,6.67c-3.963,0.509-7.354-2.578-7.354-6.443v-51.669c0-4.106-3.164-7.685-7.268-7.808 c-4.246-0.127-7.727,3.277-7.727,7.495v42.362l-23.458,52.117l-22.053-50.042c17.933-9.23,29.516-27.8,29.516-48.436 c0-30.041-24.44-54.482-54.482-54.482c-6.465,0-12.87,1.179-18.892,3.4l-19.151-43.457c3.272,1.41,6.895,2.156,10.698,2.061 c13.922-0.348,24.845-12.146,24.845-26.073v-54.078c0-4.106-3.164-7.685-7.268-7.808c-4.246-0.127-7.727,3.277-7.727,7.495v54.675 c0,5.463-4.047,10.245-9.486,10.757c-6.241,0.587-11.507-4.328-11.507-10.449v-17.18c0-4.106-3.164-7.685-7.268-7.808 c-4.246-0.127-7.727,3.277-7.727,7.495v67.171c0,5.463-4.047,10.245-9.486,10.756c-6.241,0.587-11.507-4.328-11.507-10.449 V216.432c0-1.079-0.233-2.145-0.683-3.126l-4.167-9.089c23.744-6.089,40.837-27.569,40.837-52.764 c0-21.741-12.802-40.883-31.822-49.561c31.555-28.371,73.001-44.911,117.294-44.911c24.07,0,47.348,4.917,68.662,13.983 c2.82,1.2,6.083,0.582,8.25-1.585c3.776-3.776,2.491-10.14-2.424-12.228c-23.124-9.831-48.375-15.165-74.488-15.165 c-76.694,0-145.561,45.649-175.449,116.295c-1.864,4.408-6.918,6.678-11.49,5.174l-7.636-2.509 c-2.47-0.812-4.607-2.508-5.756-4.84c-1.213-2.458-1.299-5.212-0.249-7.716C89.858,67.356,168.591,14.995,256.447,14.995 c86.802,0,165.166,51.485,199.644,131.165C457.192,148.706,457.109,151.529,455.845,154.043z"></path></g></g></svg>