<!-- icon666.com - MILLIONS vector ICONS FREE --><svg id="Layer_1" viewBox="0 0 32 32" xmlns="http://www.w3.org/2000/svg" data-name="Layer 1"><path d="m28.94 27.65-9-24a1 1 0 0 0 -.94-.65 16 16 0 0 0 -16 16 1 1 0 0 0 .65.94l24 9a1 1 0 0 0 1.06-.23 1 1 0 0 0 .23-1.06zm-23.94-9.34a14 14 0 0 1 13.31-13.31l.92 2.43a15.94 15.94 0 0 0 -11.78 11.8zm4.32 1.63a14 14 0 0 1 10.6-10.6l6.35 17zm9.68-6.94a1 1 0 1 1 -1-1 1 1 0 0 1 1 1zm1 3a1 1 0 1 1 -1 1 1 1 0 0 1 1-1zm1 4a1 1 0 1 1 -1 1 1 1 0 0 1 1-1zm-3 0a1 1 0 1 1 -1-1 1 1 0 0 1 1 1zm-2-3a1 1 0 1 1 1-1 1 1 0 0 1 -1 1zm-2 2a1 1 0 1 1 -1-1 1 1 0 0 1 1 1z"></path></svg>